<svg viewBox="0 0 1200 600" xmlns="http://www.w3.org/2000/svg" font-family="'SF Pro Display','Segoe UI',system-ui,-apple-system,sans-serif">

  <!-- ═══ BASE BACKGROUND ═══ -->
  <rect width="1200" height="600" fill="#080e1a"/>

  <!-- ═══ TOP NAV BAR ═══ -->
  <rect width="1200" height="48" fill="#111827"/>
  <line x1="0" y1="48" x2="1200" y2="48" stroke="#1f2d3d" stroke-width="1"/>

  <!-- Logo -->
  <circle cx="28" cy="24" r="8" fill="#16a34a"/>
  <circle cx="28" cy="24" r="3" fill="#080e1a"/>
  <text x="44" y="29.5" fill="#f1f5f9" font-size="13" font-weight="700" letter-spacing="-0.3">Greenlights WMS</text>

  <!-- Nav divider -->
  <line x1="176" y1="14" x2="176" y2="34" stroke="#1f2d3d" stroke-width="1"/>

  <!-- Breadcrumb -->
  <text x="190" y="29.5" fill="#475569" font-size="12">Manager</text>
  <text x="243" y="29.5" fill="#334155" font-size="12">/</text>
  <text x="254" y="29.5" fill="#94a3b8" font-size="12" font-weight="500">Dashboard</text>

  <!-- Live indicator -->
  <circle cx="955" cy="24" r="4" fill="#16a34a" opacity="0.9"/>
  <circle cx="955" cy="24" r="4" fill="#16a34a" opacity="0.3">
    <animate attributeName="r" values="4;8;4" dur="2s" repeatCount="indefinite"/>
    <animate attributeName="opacity" values="0.3;0;0.3" dur="2s" repeatCount="indefinite"/>
  </circle>
  <text x="966" y="29" fill="#4ade80" font-size="11" font-weight="500">Live</text>
  <text x="995" y="29" fill="#334155" font-size="11">· Updated just now</text>

  <!-- User avatar -->
  <circle cx="1168" cy="24" r="16" fill="#1e293b"/>
  <circle cx="1168" cy="24" r="15.5" fill="none" stroke="#2d3f55" stroke-width="1"/>
  <text x="1168" y="28.5" fill="#94a3b8" font-size="11" text-anchor="middle" font-weight="600">JM</text>

  <!-- ═══ SIDEBAR ═══ -->
  <rect x="0" y="48" width="180" height="552" fill="#09101e"/>
  <line x1="180" y1="48" x2="180" y2="600" stroke="#1f2d3d" stroke-width="1"/>

  <!-- Dashboard nav (active) -->
  <rect x="8" y="62" width="164" height="36" rx="6" fill="#16a34a" fill-opacity="0.12"/>
  <rect x="8" y="62" width="3" height="36" rx="1.5" fill="#16a34a"/>
  <!-- grid icon -->
  <rect x="25" y="72" width="7" height="7" rx="1.5" fill="#4ade80"/>
  <rect x="34" y="72" width="7" height="7" rx="1.5" fill="#4ade80"/>
  <rect x="25" y="81" width="7" height="7" rx="1.5" fill="#4ade80"/>
  <rect x="34" y="81" width="7" height="7" rx="1.5" fill="#4ade80"/>
  <text x="50" y="83" fill="#4ade80" font-size="12" font-weight="600">Dashboard</text>

  <!-- Tasks nav item -->
  <rect x="26" y="109" width="14" height="3" rx="1.5" fill="#475569"/>
  <rect x="26" y="114" width="10" height="3" rx="1.5" fill="#475569"/>
  <rect x="26" y="119" width="12" height="3" rx="1.5" fill="#475569"/>
  <text x="50" y="120" fill="#475569" font-size="12">Tasks</text>
  <rect x="136" y="111" width="28" height="16" rx="8" fill="#16a34a" fill-opacity="0.18"/>
  <text x="150" y="123" fill="#4ade80" font-size="10" text-anchor="middle" font-weight="700">24</text>

  <!-- Inventory nav item -->
  <rect x="26" y="144" width="14" height="10" rx="2" fill="none" stroke="#475569" stroke-width="1.5"/>
  <rect x="26" y="156" width="14" height="4" rx="1" fill="#475569"/>
  <text x="50" y="154" fill="#475569" font-size="12">Inventory</text>

  <!-- Labor nav item -->
  <rect x="26" y="171" width="4" height="12" rx="1" fill="#475569"/>
  <rect x="32" y="166" width="4" height="17" rx="1" fill="#475569"/>
  <rect x="38" y="168" width="4" height="15" rx="1" fill="#475569"/>
  <text x="50" y="182" fill="#475569" font-size="12">Labor</text>

  <!-- Config nav item -->
  <circle cx="33" cy="208" r="6" fill="none" stroke="#475569" stroke-width="1.5"/>
  <circle cx="33" cy="208" r="2" fill="#475569"/>
  <text x="50" y="212" fill="#475569" font-size="12">Config</text>

  <!-- Integrations nav item -->
  <circle cx="27" cy="237" r="3.5" fill="none" stroke="#475569" stroke-width="1.5"/>
  <circle cx="39" cy="237" r="3.5" fill="none" stroke="#475569" stroke-width="1.5"/>
  <line x1="30.5" y1="237" x2="35.5" y2="237" stroke="#475569" stroke-width="1.5"/>
  <text x="50" y="241" fill="#475569" font-size="12">Integrations</text>

  <!-- Sidebar bottom user info -->
  <line x1="12" y1="562" x2="168" y2="562" stroke="#1f2d3d" stroke-width="1"/>
  <circle cx="32" cy="580" r="11" fill="#1e293b"/>
  <text x="32" y="584" fill="#64748b" font-size="9" text-anchor="middle" font-weight="600">JM</text>
  <text x="50" y="577" fill="#64748b" font-size="11" font-weight="500">J. Martin</text>
  <text x="50" y="588" fill="#334155" font-size="10">Warehouse Manager</text>

  <!-- ═══ PAGE HEADER ═══ -->
  <text x="200" y="76" fill="#f1f5f9" font-size="15" font-weight="700">Live Operations</text>
  <text x="200" y="94" fill="#334155" font-size="11">WebSocket · real-time · 100ms latency</text>

  <!-- ═══ KPI CARDS ═══ (y=106..190) -->

  <!-- Card 1 — Pending Tasks -->
  <rect x="200" y="106" width="188" height="84" rx="8" fill="#111827"/>
  <rect x="200" y="106" width="188" height="2.5" rx="1.25" fill="#f59e0b"/>
  <text x="216" y="130" fill="#64748b" font-size="11">Pending Tasks</text>
  <text x="216" y="162" fill="#f1f5f9" font-size="32" font-weight="800">24</text>
  <text x="258" y="162" fill="#475569" font-size="12">tasks</text>
  <polyline points="352,162 362,150 372,155 385,143" fill="none" stroke="#f59e0b" stroke-width="1.5" stroke-linecap="round" stroke-linejoin="round"/>

  <!-- Card 2 — In Progress -->
  <rect x="400" y="106" width="188" height="84" rx="8" fill="#111827"/>
  <rect x="400" y="106" width="188" height="2.5" rx="1.25" fill="#3b82f6"/>
  <text x="416" y="130" fill="#64748b" font-size="11">In Progress</text>
  <text x="416" y="162" fill="#f1f5f9" font-size="32" font-weight="800">12</text>
  <text x="458" y="162" fill="#475569" font-size="12">tasks</text>
  <polyline points="552,160 562,150 572,154 585,142" fill="none" stroke="#3b82f6" stroke-width="1.5" stroke-linecap="round" stroke-linejoin="round"/>

  <!-- Card 3 — Completed Today -->
  <rect x="600" y="106" width="188" height="84" rx="8" fill="#111827"/>
  <rect x="600" y="106" width="188" height="2.5" rx="1.25" fill="#16a34a"/>
  <text x="616" y="130" fill="#64748b" font-size="11">Completed Today</text>
  <text x="616" y="162" fill="#4ade80" font-size="32" font-weight="800">89</text>
  <text x="660" y="162" fill="#475569" font-size="12">tasks</text>
  <polyline points="752,163 762,148 772,153 785,138" fill="none" stroke="#4ade80" stroke-width="1.5" stroke-linecap="round" stroke-linejoin="round"/>

  <!-- Card 4 — Inventory Accuracy -->
  <rect x="800" y="106" width="188" height="84" rx="8" fill="#111827"/>
  <rect x="800" y="106" width="188" height="2.5" rx="1.25" fill="#8b5cf6"/>
  <text x="816" y="130" fill="#64748b" font-size="11">Inventory Accuracy</text>
  <text x="816" y="162" fill="#f1f5f9" font-size="32" font-weight="800">99.8%</text>
  <!-- shield check icon -->
  <path d="M970 140 L978 136 L986 140 L986 149 C986 153 982 156 978 157 C974 156 970 153 970 149 Z" fill="none" stroke="#a78bfa" stroke-width="1.5" stroke-linejoin="round"/>
  <polyline points="975 147.5 977.5 150 983 144" fill="none" stroke="#a78bfa" stroke-width="1.5" stroke-linecap="round" stroke-linejoin="round"/>

  <!-- ═══ TASK TABLE (x=200..814, y=206..580) ═══ -->
  <rect x="200" y="206" width="614" height="374" rx="8" fill="#111827"/>

  <!-- Table title row -->
  <text x="216" y="232" fill="#f1f5f9" font-size="13" font-weight="600">Active Tasks</text>
  <rect x="672" y="218" width="88" height="24" rx="6" fill="#16a34a" fill-opacity="0.14"/>
  <text x="716" y="234.5" fill="#4ade80" font-size="11" text-anchor="middle" font-weight="500">+ New Task</text>
  <line x1="200" y1="248" x2="814" y2="248" stroke="#1f2d3d" stroke-width="1"/>

  <!-- Column headers -->
  <rect x="200" y="249" width="614" height="30" fill="#0c1220"/>
  <text x="216" y="268" fill="#475569" font-size="10" font-weight="600" letter-spacing="0.8">TASK ID</text>
  <text x="306" y="268" fill="#475569" font-size="10" font-weight="600" letter-spacing="0.8">TYPE</text>
  <text x="388" y="268" fill="#475569" font-size="10" font-weight="600" letter-spacing="0.8">ZONE</text>
  <text x="462" y="268" fill="#475569" font-size="10" font-weight="600" letter-spacing="0.8">OPERATOR</text>
  <text x="578" y="268" fill="#475569" font-size="10" font-weight="600" letter-spacing="0.8">ETA</text>
  <text x="638" y="268" fill="#475569" font-size="10" font-weight="600" letter-spacing="0.8">STATUS</text>
  <line x1="200" y1="279" x2="814" y2="279" stroke="#1f2d3d" stroke-width="1"/>

  <!-- Row 1 -->
  <text x="216" y="307" fill="#cbd5e1" font-size="12" font-weight="500">PICK-2841</text>
  <rect x="300" y="295" width="54" height="18" rx="4" fill="#3b82f6" fill-opacity="0.14"/>
  <text x="327" y="308" fill="#93c5fd" font-size="10" text-anchor="middle">PICK</text>
  <text x="388" y="307" fill="#94a3b8" font-size="12">Zone A-3</text>
  <circle cx="463" cy="303.5" r="5" fill="#16a34a"/>
  <text x="475" y="307" fill="#94a3b8" font-size="12">J. Martin</text>
  <text x="578" y="307" fill="#94a3b8" font-size="12">4 min</text>
  <rect x="628" y="295" width="86" height="18" rx="4" fill="#16a34a" fill-opacity="0.14"/>
  <circle cx="641" cy="304" r="3" fill="#4ade80"/>
  <text x="714" y="308" fill="#4ade80" font-size="10" text-anchor="end">In Progress</text>
  <line x1="200" y1="323" x2="814" y2="323" stroke="#1a2535" stroke-width="1"/>

  <!-- Row 2 -->
  <text x="216" y="351" fill="#cbd5e1" font-size="12" font-weight="500">PICK-2842</text>
  <rect x="300" y="339" width="54" height="18" rx="4" fill="#3b82f6" fill-opacity="0.14"/>
  <text x="327" y="352" fill="#93c5fd" font-size="10" text-anchor="middle">PICK</text>
  <text x="388" y="351" fill="#94a3b8" font-size="12">Zone B-1</text>
  <circle cx="463" cy="347.5" r="5" fill="#16a34a"/>
  <text x="475" y="351" fill="#94a3b8" font-size="12">S. Chen</text>
  <text x="578" y="351" fill="#94a3b8" font-size="12">8 min</text>
  <rect x="628" y="339" width="76" height="18" rx="4" fill="#f59e0b" fill-opacity="0.12"/>
  <circle cx="641" cy="348" r="3" fill="#fbbf24"/>
  <text x="704" y="352" fill="#fbbf24" font-size="10" text-anchor="end">Assigned</text>
  <line x1="200" y1="367" x2="814" y2="367" stroke="#1a2535" stroke-width="1"/>

  <!-- Row 3 -->
  <text x="216" y="395" fill="#cbd5e1" font-size="12" font-weight="500">PUT-1093</text>
  <rect x="300" y="383" width="68" height="18" rx="4" fill="#8b5cf6" fill-opacity="0.14"/>
  <text x="334" y="396" fill="#c4b5fd" font-size="10" text-anchor="middle">PUTAWAY</text>
  <text x="388" y="395" fill="#94a3b8" font-size="12">Zone C-2</text>
  <circle cx="463" cy="391.5" r="5" fill="#16a34a"/>
  <text x="475" y="395" fill="#94a3b8" font-size="12">M. Davis</text>
  <text x="578" y="395" fill="#94a3b8" font-size="12">12 min</text>
  <rect x="628" y="383" width="86" height="18" rx="4" fill="#16a34a" fill-opacity="0.14"/>
  <circle cx="641" cy="392" r="3" fill="#4ade80"/>
  <text x="714" y="396" fill="#4ade80" font-size="10" text-anchor="end">In Progress</text>
  <line x1="200" y1="411" x2="814" y2="411" stroke="#1a2535" stroke-width="1"/>

  <!-- Row 4 -->
  <text x="216" y="439" fill="#cbd5e1" font-size="12" font-weight="500">PICK-2843</text>
  <rect x="300" y="427" width="54" height="18" rx="4" fill="#3b82f6" fill-opacity="0.14"/>
  <text x="327" y="440" fill="#93c5fd" font-size="10" text-anchor="middle">PICK</text>
  <text x="388" y="439" fill="#94a3b8" font-size="12">Zone A-1</text>
  <circle cx="463" cy="435.5" r="5" fill="#f59e0b"/>
  <text x="475" y="439" fill="#94a3b8" font-size="12">K. Wilson</text>
  <text x="578" y="439" fill="#475569" font-size="12">—</text>
  <rect x="628" y="427" width="62" height="18" rx="4" fill="#475569" fill-opacity="0.18"/>
  <circle cx="641" cy="436" r="3" fill="#64748b"/>
  <text x="690" y="440" fill="#64748b" font-size="10" text-anchor="end">Paused</text>
  <line x1="200" y1="455" x2="814" y2="455" stroke="#1a2535" stroke-width="1"/>

  <!-- Row 5 -->
  <text x="216" y="483" fill="#cbd5e1" font-size="12" font-weight="500">PUT-1094</text>
  <rect x="300" y="471" width="68" height="18" rx="4" fill="#8b5cf6" fill-opacity="0.14"/>
  <text x="334" y="484" fill="#c4b5fd" font-size="10" text-anchor="middle">PUTAWAY</text>
  <text x="388" y="483" fill="#94a3b8" font-size="12">Zone B-3</text>
  <circle cx="463" cy="479.5" r="5" fill="#16a34a"/>
  <text x="475" y="483" fill="#94a3b8" font-size="12">R. Patel</text>
  <text x="578" y="483" fill="#94a3b8" font-size="12">15 min</text>
  <rect x="628" y="471" width="76" height="18" rx="4" fill="#f59e0b" fill-opacity="0.12"/>
  <circle cx="641" cy="480" r="3" fill="#fbbf24"/>
  <text x="704" y="484" fill="#fbbf24" font-size="10" text-anchor="end">Assigned</text>
  <line x1="200" y1="499" x2="814" y2="499" stroke="#1a2535" stroke-width="1"/>

  <!-- View all link -->
  <text x="507" y="545" fill="#3b82f6" font-size="11" text-anchor="middle">View all 24 active tasks →</text>

  <!-- ═══ RIGHT PANEL: Operators (x=826..1188, y=206..400) ═══ -->
  <rect x="826" y="206" width="362" height="194" rx="8" fill="#111827"/>
  <text x="842" y="230" fill="#f1f5f9" font-size="13" font-weight="600">Operators</text>
  <text x="1154" y="230" fill="#334155" font-size="11" text-anchor="end">8 / 10 online</text>
  <line x1="826" y1="238" x2="1188" y2="238" stroke="#1f2d3d" stroke-width="1"/>

  <!-- Op 1 — J. Martin / Busy -->
  <circle cx="854" cy="261" r="13" fill="#1a2535"/>
  <text x="854" y="265.5" fill="#64748b" font-size="9.5" text-anchor="middle" font-weight="600">JM</text>
  <circle cx="864" cy="272" r="4.5" fill="#16a34a"/>
  <text x="878" y="263" fill="#f1f5f9" font-size="12" font-weight="500">J. Martin</text>
  <text x="878" y="275" fill="#334155" font-size="10">Zone A-3 · PICK-2841</text>
  <rect x="1102" y="252" width="52" height="18" rx="5" fill="#16a34a" fill-opacity="0.15"/>
  <text x="1128" y="265" fill="#4ade80" font-size="10" text-anchor="middle">Busy</text>
  <line x1="842" y1="287" x2="1174" y2="287" stroke="#1a2535" stroke-width="1"/>

  <!-- Op 2 — S. Chen / Busy -->
  <circle cx="854" cy="308" r="13" fill="#1a2535"/>
  <text x="854" y="312.5" fill="#64748b" font-size="9.5" text-anchor="middle" font-weight="600">SC</text>
  <circle cx="864" cy="319" r="4.5" fill="#16a34a"/>
  <text x="878" y="310" fill="#f1f5f9" font-size="12" font-weight="500">S. Chen</text>
  <text x="878" y="322" fill="#334155" font-size="10">Zone B-1 · PICK-2842</text>
  <rect x="1102" y="299" width="52" height="18" rx="5" fill="#16a34a" fill-opacity="0.15"/>
  <text x="1128" y="312" fill="#4ade80" font-size="10" text-anchor="middle">Busy</text>
  <line x1="842" y1="334" x2="1174" y2="334" stroke="#1a2535" stroke-width="1"/>

  <!-- Op 3 — M. Davis / Busy -->
  <circle cx="854" cy="355" r="13" fill="#1a2535"/>
  <text x="854" y="359.5" fill="#64748b" font-size="9.5" text-anchor="middle" font-weight="600">MD</text>
  <circle cx="864" cy="366" r="4.5" fill="#16a34a"/>
  <text x="878" y="357" fill="#f1f5f9" font-size="12" font-weight="500">M. Davis</text>
  <text x="878" y="369" fill="#334155" font-size="10">Zone C-2 · PUT-1093</text>
  <rect x="1102" y="346" width="52" height="18" rx="5" fill="#16a34a" fill-opacity="0.15"/>
  <text x="1128" y="359" fill="#4ade80" font-size="10" text-anchor="middle">Busy</text>
  <line x1="842" y1="381" x2="1174" y2="381" stroke="#1a2535" stroke-width="1"/>

  <!-- Op 4 — K. Wilson / Paused -->
  <circle cx="854" cy="395" r="13" fill="#1a2535"/>
  <text x="854" y="399.5" fill="#64748b" font-size="9.5" text-anchor="middle" font-weight="600">KW</text>
  <circle cx="864" cy="406" r="4.5" fill="#f59e0b"/>
  <text x="878" y="397" fill="#f1f5f9" font-size="12" font-weight="500">K. Wilson</text>
  <text x="878" y="409" fill="#334155" font-size="10">Zone A-1 · Paused</text>
  <rect x="1096" y="386" width="60" height="18" rx="5" fill="#f59e0b" fill-opacity="0.12"/>
  <text x="1126" y="399" fill="#fbbf24" font-size="10" text-anchor="middle">Paused</text>

  <!-- ═══ RIGHT PANEL: Inventory Alerts (x=826..1188, y=412..580) ═══ -->
  <rect x="826" y="412" width="362" height="168" rx="8" fill="#111827"/>
  <text x="842" y="436" fill="#f1f5f9" font-size="13" font-weight="600">Inventory Alerts</text>
  <rect x="1098" y="424" width="78" height="18" rx="5" fill="#ef4444" fill-opacity="0.14"/>
  <text x="1137" y="436.5" fill="#fca5a5" font-size="10" text-anchor="middle">3 alerts</text>
  <line x1="826" y1="446" x2="1188" y2="446" stroke="#1f2d3d" stroke-width="1"/>

  <!-- Alert 1 — Low Stock (red) -->
  <rect x="842" y="458" width="3" height="36" rx="1.5" fill="#ef4444"/>
  <text x="854" y="473" fill="#f1f5f9" font-size="11.5" font-weight="500">SKU-10421 · Brake Rotor Set</text>
  <text x="854" y="485" fill="#475569" font-size="10">Stock: 4 units  ·  Min reorder: 20</text>
  <rect x="1106" y="461" width="68" height="18" rx="5" fill="#ef4444" fill-opacity="0.14"/>
  <text x="1140" y="474" fill="#fca5a5" font-size="10" text-anchor="middle">Low Stock</text>
  <line x1="842" y1="500" x2="1178" y2="500" stroke="#1a2535" stroke-width="1"/>

  <!-- Alert 2 — Low Stock (amber) -->
  <rect x="842" y="510" width="3" height="36" rx="1.5" fill="#f59e0b"/>
  <text x="854" y="525" fill="#f1f5f9" font-size="11.5" font-weight="500">SKU-28910 · Hydraulic Fluid</text>
  <text x="854" y="537" fill="#475569" font-size="10">Stock: 12 units  ·  Min reorder: 50</text>
  <rect x="1106" y="513" width="68" height="18" rx="5" fill="#f59e0b" fill-opacity="0.12"/>
  <text x="1140" y="526" fill="#fbbf24" font-size="10" text-anchor="middle">Low Stock</text>
  <line x1="842" y1="551" x2="1178" y2="551" stroke="#1a2535" stroke-width="1"/>

  <!-- Alert 3 — Count discrepancy (red) -->
  <rect x="842" y="558" width="3" height="32" rx="1.5" fill="#ef4444"/>
  <text x="854" y="572" fill="#f1f5f9" font-size="11.5" font-weight="500">Zone D-4 · Count discrepancy</text>
  <text x="854" y="582" fill="#475569" font-size="10">Expected: 200  ·  Counted: 187</text>
  <rect x="1092" y="561" width="84" height="18" rx="5" fill="#ef4444" fill-opacity="0.14"/>
  <text x="1134" y="574" fill="#fca5a5" font-size="10" text-anchor="middle">Investigate</text>

</svg>
